{
    "asset" : {
        "generator" : "Khronos glTF Blender I/O v1.4.40",
        "version" : "2.0"
    },
    "scene" : 0,
    "scenes" : [
        {
            "name" : "Scene",
            "nodes" : [
                0,
                1
            ]
        }
    ],
    "nodes" : [
        {
            "mesh" : 0,
            "name" : "Porte",
            "rotation" : [
                0.7071068286895752,
                0,
                -0.7071068286895752,
                5.338508657359853e-08
            ],
            "scale" : [
                0.12954576313495636,
                0.04215981438755989,
                0.04195144400000572
            ],
            "translation" : [
                0.2630884647369385,
                2.9440457820892334,
                1.8709591627120972
            ]
        },
        {
            "mesh" : 1,
            "name" : "Batis",
            "scale" : [
                0.27373674511909485,
                3.158691883087158,
                0.10935308039188385
            ],
            "translation" : [
                -0.010645925998687744,
                3.015472650527954,
                1.8969852924346924
            ]
        }
    ],
    "animations" : [
        {
            "channels" : [
                {
                    "sampler" : 0,
                    "target" : {
                        "node" : 0,
                        "path" : "rotation"
                    }
                }
            ],
            "name" : "Close",
            "samplers" : [
                {
                    "input" : 9,
                    "interpolation" : "LINEAR",
                    "output" : 10
                }
            ]
        },
        {
            "channels" : [
                {
                    "sampler" : 0,
                    "target" : {
                        "node" : 0,
                        "path" : "rotation"
                    }
                }
            ],
            "name" : "Idle",
            "samplers" : [
                {
                    "input" : 11,
                    "interpolation" : "LINEAR",
                    "output" : 12
                }
            ]
        },
        {
            "channels" : [
                {
                    "sampler" : 0,
                    "target" : {
                        "node" : 0,
                        "path" : "rotation"
                    }
                }
            ],
            "name" : "Open",
            "samplers" : [
                {
                    "input" : 13,
                    "interpolation" : "LINEAR",
                    "output" : 14
                }
            ]
        }
    ],
    "materials" : [
        {
            "doubleSided" : true,
            "name" : "Material",
            "pbrMetallicRoughness" : {
                "baseColorFactor" : [
                    0.24619434773921967,
                    0.07124413549900055,
                    0,
                    1
                ],
                "metallicFactor" : 0,
                "roughnessFactor" : 0.5
            }
        },
        {
            "doubleSided" : true,
            "name" : "Material.001",
            "pbrMetallicRoughness" : {
                "baseColorFactor" : [
                    0.800000011920929,
                    0.800000011920929,
                    0.800000011920929,
                    1
                ],
                "metallicFactor" : 0,
                "roughnessFactor" : 0.5
            }
        }
    ],
    "meshes" : [
        {
            "name" : "Cube.003",
            "primitives" : [
                {
                    "attributes" : {
                        "POSITION" : 0,
                        "NORMAL" : 1
                    },
                    "indices" : 2,
                    "material" : 0
                },
                {
                    "attributes" : {
                        "POSITION" : 3,
                        "NORMAL" : 4
                    },
                    "indices" : 5,
                    "material" : 1
                }
            ]
        },
        {
            "name" : "Cube.001",
            "primitives" : [
                {
                    "attributes" : {
                        "POSITION" : 6,
                        "NORMAL" : 7
                    },
                    "indices" : 8,
                    "material" : 0
                }
            ]
        }
    ],
    "accessors" : [
        {
            "bufferView" : 0,
            "componentType" : 5126,
            "count" : 214,
            "max" : [
                28.110652923583984,
                72.43809509277344,
                16.4919490814209
            ],
            "min" : [
                0.7742633819580078,
                -77.40562438964844,
                -2.7575206756591797
            ],
            "type" : "VEC3"
        },
        {
            "bufferView" : 1,
            "componentType" : 5126,
            "count" : 214,
            "type" : "VEC3"
        },
        {
            "bufferView" : 2,
            "componentType" : 5123,
            "count" : 432,
            "type" : "SCALAR"
        },
        {
            "bufferView" : 3,
            "componentType" : 5126,
            "count" : 8,
            "max" : [
                28.110652923583984,
                72.43809509277344,
                11.147539138793945
            ],
            "min" : [
                0.7742633819580078,
                -77.40562438964844,
                1.394979476928711
            ],
            "type" : "VEC3"
        },
        {
            "bufferView" : 4,
            "componentType" : 5126,
            "count" : 8,
            "type" : "VEC3"
        },
        {
            "bufferView" : 5,
            "componentType" : 5123,
            "count" : 12,
            "type" : "SCALAR"
        },
        {
            "bufferView" : 6,
            "componentType" : 5126,
            "count" : 86,
            "max" : [
                1.0000019073486328,
                1.0800156593322754,
                1.0000005960464478
            ],
            "min" : [
                -1.0000003576278687,
                -1.0046236515045166,
                -35.49662399291992
            ],
            "type" : "VEC3"
        },
        {
            "bufferView" : 7,
            "componentType" : 5126,
            "count" : 86,
            "type" : "VEC3"
        },
        {
            "bufferView" : 8,
            "componentType" : 5123,
            "count" : 132,
            "type" : "SCALAR"
        },
        {
            "bufferView" : 9,
            "componentType" : 5126,
            "count" : 29,
            "max" : [
                1.2083333333333333
            ],
            "min" : [
                0.041666666666666664
            ],
            "type" : "SCALAR"
        },
        {
            "bufferView" : 10,
            "componentType" : 5126,
            "count" : 29,
            "type" : "VEC4"
        },
        {
            "bufferView" : 11,
            "componentType" : 5126,
            "count" : 18,
            "max" : [
                0.75
            ],
            "min" : [
                0.041666666666666664
            ],
            "type" : "SCALAR"
        },
        {
            "bufferView" : 12,
            "componentType" : 5126,
            "count" : 18,
            "type" : "VEC4"
        },
        {
            "bufferView" : 13,
            "componentType" : 5126,
            "count" : 30,
            "max" : [
                1.25
            ],
            "min" : [
                0.041666666666666664
            ],
            "type" : "SCALAR"
        },
        {
            "bufferView" : 14,
            "componentType" : 5126,
            "count" : 30,
            "type" : "VEC4"
        }
    ],
    "bufferViews" : [
        {
            "buffer" : 0,
            "byteLength" : 2568,
            "byteOffset" : 0
        },
        {
            "buffer" : 0,
            "byteLength" : 2568,
            "byteOffset" : 2568
        },
        {
            "buffer" : 0,
            "byteLength" : 864,
            "byteOffset" : 5136
        },
        {
            "buffer" : 0,
            "byteLength" : 96,
            "byteOffset" : 6000
        },
        {
            "buffer" : 0,
            "byteLength" : 96,
            "byteOffset" : 6096
        },
        {
            "buffer" : 0,
            "byteLength" : 24,
            "byteOffset" : 6192
        },
        {
            "buffer" : 0,
            "byteLength" : 1032,
            "byteOffset" : 6216
        },
        {
            "buffer" : 0,
            "byteLength" : 1032,
            "byteOffset" : 7248
        },
        {
            "buffer" : 0,
            "byteLength" : 264,
            "byteOffset" : 8280
        },
        {
            "buffer" : 0,
            "byteLength" : 116,
            "byteOffset" : 8544
        },
        {
            "buffer" : 0,
            "byteLength" : 464,
            "byteOffset" : 8660
        },
        {
            "buffer" : 0,
            "byteLength" : 72,
            "byteOffset" : 9124
        },
        {
            "buffer" : 0,
            "byteLength" : 288,
            "byteOffset" : 9196
        },
        {
            "buffer" : 0,
            "byteLength" : 120,
            "byteOffset" : 9484
        },
        {
            "buffer" : 0,
            "byteLength" : 480,
            "byteOffset" : 9604
        }
    ],
    "buffers" : [
        {
            "byteLength" : 10084,
            "uri" : "door.bin"
        }
    ]
}
